<svg width="627" height="325" viewBox="0 0 627 325" fill="none" xmlns="http://www.w3.org/2000/svg">
<path d="M3 312L57 6C57.4941 3.2 61.2059 2.16667 63 2H108C112.4 2 114.167 4.66667 114.5 6L89.5 149.5C91.1667 149.833 94.6 150.3 95 149.5C95.5 148.5 97.5 142.5 102.5 131C106.5 121.8 118.167 108.167 123.5 102.5C156.3 73.3 196.5 84 212.5 93C237.3 107.8 238.167 141.833 235.5 157C232.7 170.6 222.667 199.667 218 212.5C215.6 214.5 212 234 210.5 243.5C209.3 266.3 226 261.667 234.5 256.5C242.1 254.9 253 231.5 257.5 220L279.5 149.5C290 122 299.5 107 316 95C332.5 83 362.5 78 386 90.5C404.8 100.5 410.5 124.667 411 135.5C412.6 157.5 400 197 393.5 214C381.1 240.4 390.667 253.333 397 256.5C419 266.5 443.833 256 453.5 249.5C470.7 237.9 479.333 219.333 481.5 211.5C488 174.167 501.1 98.6 501.5 95C501.9 91.4 507.333 89.1667 510 88.5H554C560 88.9 561.833 93 562 95L539 223C536.2 232.2 536.167 246.167 536.5 252C539.7 264 549.833 262 554.5 259.5C560.1 259.1 566.167 251.333 568.5 247.5C572.5 245 581.5 222.5 582.5 219C583.3 216.2 586.5 216.5 588 217L622.5 238C624.5 240 624.667 241.5 624.5 242C624.9 246.4 615 266.5 610 276C584.4 312.8 553 322.333 540.5 322.5C498.9 324.9 486.167 305.167 485 295C480.2 285.8 483 265.5 485 256.5H480C476.8 270.9 459 290.5 450.5 298.5C418.1 326.1 382.333 324 368.5 319.5C318.5 303.1 324 253.333 333 230.5C349 186.5 356.462 162.5 352.5 152.5C344.1 131.3 327.333 131.667 320 134.5C308.4 136.1 298.833 153.833 295.5 162.5C284 180 285.5 243 274 277C262.5 311 215.5 337 174.5 312C141.7 292 155.833 230.333 167 202C192 145 163.833 143.5 149.5 145C103.1 143.8 85.5 179.833 82.5 198C76 233.833 62.8 306.5 62 310.5C61.2 314.5 57.3333 316.167 55.5 316.5C41.1667 316.667 11.7 316.9 8.5 316.5C5.3 316.1 3.5 313.333 3 312Z" stroke="black" stroke-width="4"/>
</svg>
