
<svg version="1.0" xmlns="http://www.w3.org/2000/svg"
width="300.000000pt" height="300.000000pt" viewBox="0 0 300.000000 300.000000"
 preserveAspectRatio="xMidYMid meet">

<g transform="translate(0.000000,300.000000) scale(0.100000,-0.100000)"
fill="#000000" >
<path d="M336 2221 c-11 -17 -247 -1393 -242 -1407 4 -11 32 -14 126 -14 116
0 121 1 130 22 5 13 28 136 50 273 46 275 67 338 128 398 74 72 184 107 266
86 94 -24 100 -71 36 -274 -73 -229 -75 -344 -10 -434 47 -65 98 -86 205 -86
78 0 97 4 141 27 73 38 130 107 154 186 11 35 27 123 35 196 27 235 48 314
100 382 63 82 161 84 209 4 29 -49 20 -112 -41 -294 -49 -147 -57 -181 -57
-246 0 -93 30 -159 93 -207 57 -44 109 -56 214 -50 72 4 99 10 151 36 73 36
158 120 206 204 17 31 36 57 40 57 5 0 7 -37 4 -82 -5 -75 -3 -88 18 -128 36
-67 98 -95 203 -94 69 0 91 5 148 32 96 45 177 125 227 225 22 44 40 88 40 98
0 20 -141 118 -170 119 -9 0 -24 -23 -39 -61 -43 -113 -129 -171 -174 -121
-26 28 -21 70 42 422 33 179 57 328 54 333 -8 13 -250 8 -260 -5 -6 -7 -29
-130 -52 -273 -47 -288 -64 -338 -131 -403 -65 -64 -121 -87 -213 -87 -77 0
-79 1 -109 34 -37 41 -35 59 23 240 80 252 74 382 -23 467 -48 42 -99 58 -178
58 -124 0 -224 -69 -292 -201 -34 -64 -53 -118 -127 -358 -17 -55 -44 -124
-61 -153 -46 -79 -117 -114 -154 -76 -29 28 -19 96 40 277 66 199 74 284 37
367 -62 140 -247 190 -410 110 -89 -44 -159 -127 -202 -242 -10 -27 -31 -39
-31 -17 0 5 25 152 56 325 30 174 53 322 50 330 -4 11 -31 14 -125 14 -66 0
-122 -4 -125 -9z m201 -47 c3 -9 -15 -137 -41 -283 -25 -146 -46 -281 -46
-300 0 -20 8 -43 19 -55 20 -21 20 -21 -9 -64 -42 -63 -55 -111 -99 -371 -22
-128 -46 -240 -52 -247 -8 -10 -35 -14 -90 -14 l-79 0 0 28 c0 23 50 314 186
1092 20 113 41 211 46 218 7 7 37 12 85 12 59 0 75 -3 80 -16z m461 -386 c81
-39 122 -142 101 -255 -6 -32 -33 -124 -60 -205 -62 -186 -65 -234 -15 -284
37 -37 59 -41 109 -20 61 25 127 124 167 251 18 59 31 66 25 15 -29 -264 -46
-327 -101 -384 -102 -105 -280 -115 -363 -21 -67 76 -64 186 9 420 59 191 52
257 -33 302 -47 25 -149 21 -215 -7 -29 -12 -56 -20 -59 -16 -21 21 83 151
153 192 81 48 199 53 282 12z m800 1 c52 -26 77 -63 93 -138 15 -71 2 -146
-51 -317 -48 -153 -54 -211 -24 -250 42 -58 69 -69 157 -69 74 0 88 3 145 34
72 39 135 105 165 171 12 26 38 151 63 298 24 138 46 257 49 262 8 12 172 13
179 1 3 -5 -19 -146 -49 -314 -30 -168 -55 -324 -55 -347 0 -34 6 -48 34 -76
38 -38 70 -43 115 -20 38 20 82 72 105 124 10 23 25 42 33 42 29 0 103 -52
103 -72 0 -36 -63 -141 -115 -192 -71 -71 -159 -109 -249 -110 -135 -1 -186
50 -186 185 0 62 -3 79 -19 93 -31 28 -54 12 -109 -73 -86 -132 -178 -191
-311 -199 -128 -7 -198 25 -243 112 -38 73 -31 154 31 336 65 190 73 250 41
315 -22 46 -62 79 -108 91 -44 12 -93 -6 -144 -53 -46 -44 -48 -45 -38 -17 33
88 90 151 165 185 58 27 165 25 223 -2z"/>
</g>
</svg>
